<svg width="156" height="23" viewBox="0 0 156 23" fill="none" xmlns="http://www.w3.org/2000/svg">
<path d="M11.6463 22.9684C11.446 22.2524 10.9117 22.0657 10.3209 21.8841C9.40639 21.5988 8.77449 20.9658 8.46624 20.0372C8.3378 19.6481 8.2145 19.259 8.07579 18.8336C7.46444 19.7726 6.89932 20.6701 6.30337 21.5521C6.07219 21.8893 5.81532 22.2421 5.48652 22.4703C5.19882 22.6675 4.79296 22.6986 4.40766 22.8127C4.33059 21.7181 4.10455 20.7739 4.23812 19.8919C4.37683 18.9944 4.86489 18.1488 5.22451 17.2305C3.58566 17.0697 1.80297 17.8323 0.31311 16.5353C1.97764 15.0931 3.84767 14.8752 5.841 15.2383C6.19549 15.3006 6.53456 15.4718 6.87363 15.6015C7.23325 15.7364 7.49526 15.6741 7.67507 15.1916C5.70229 14.3771 4.31004 13.0594 4.08913 10.7922C4.7159 10.5432 4.757 10.4965 6.57566 12.0062C7.33086 12.634 7.88571 13.5159 8.57926 14.346C8.5433 14.0918 8.52275 13.8739 8.48165 13.6612C8.19395 12.276 8.43542 11.0153 9.38584 9.9466C9.93555 9.33442 10.5109 8.74818 11.1223 8.19826C11.636 7.73653 12.0419 7.88179 12.0779 8.60292C12.1292 9.54194 12.0933 10.5017 11.934 11.4304C11.8107 12.1463 11.4511 12.8207 11.1428 13.6508C12.0933 13.4122 12.9512 13.1787 13.8143 12.9867C17.5749 12.1515 21.3253 11.2799 25.0962 10.5173C27.1871 10.0971 29.3089 9.75984 31.4306 9.57826C33.5935 9.39668 35.782 9.38111 37.9552 9.41743C40.8219 9.46931 43.6937 9.39668 46.5501 9.89991C47.6907 10.0971 48.9185 9.80134 50.1001 9.68721C53.9789 9.31886 57.8525 8.83119 61.7416 8.59255C64.7675 8.40578 67.8192 8.49916 70.8554 8.5251C73.1518 8.54585 75.4431 8.61848 77.7396 8.72224C82.7383 8.95051 87.7576 8.94533 92.7152 9.75465C92.7563 9.75984 92.7974 9.75465 92.8385 9.77021C95.6744 10.6885 98.238 9.60939 100.827 8.67036C101.721 8.34871 102.569 7.64834 103.55 8.33315C103.709 9.67164 102.533 9.84284 101.629 10.4654C102.05 10.5743 102.307 10.6833 102.569 10.704C105.025 10.8856 107.48 11.0309 109.936 11.228C113.702 11.5237 117.457 11.9336 121.228 12.1411C124.665 12.3279 128.117 12.3175 131.565 12.3901C132.171 12.4005 132.782 12.3901 133.322 12.3901C133.784 11.7935 133.871 11.3474 133.686 10.704C133.378 9.63014 133.918 8.76375 134.776 8.136C135.264 7.77803 135.808 7.49788 136.322 7.18661C137.334 8.50435 137.031 9.34999 134.416 12.2345C135.084 12.1982 135.592 12.2345 136.07 12.1359C138.356 11.6534 140.663 11.2384 142.908 10.5899C143.966 10.2838 144.876 9.48487 145.872 8.95051C146.314 8.71187 146.813 8.57698 147.29 8.3954C146.494 6.37729 145.513 4.53037 142.867 4.3021C143.684 5.8948 144.716 7.03097 146.484 7.21255C146.371 7.81954 145.996 7.86104 145.708 7.74691C145.107 7.51345 144.434 7.30074 143.992 6.86495C143.293 6.18014 142.708 5.36044 142.184 4.52518C141.953 4.15684 141.978 3.62248 141.84 2.94285C143.329 3.11925 144.326 3.86112 145.4 4.37992C146.525 4.92466 146.931 6.13345 147.778 7.32149C147.897 6.58999 147.979 6.16458 148.03 5.73398C148.179 4.52518 148.539 3.39421 149.104 2.31511C149.309 1.92601 149.428 1.49023 149.587 1.05962C150.049 0.852106 150.234 1.13226 150.393 1.51617C151.072 3.17112 151.164 4.81052 150.198 6.44992C151.138 6.18014 151.996 5.79623 152.88 5.7236C153.743 5.65616 154.632 5.90518 155.68 6.04007C154.812 8.30202 152.777 8.6133 151.143 9.45893C151.025 10.1801 151.601 10.2994 152.017 10.4706C153.183 10.9479 154.108 11.7364 155.002 12.5769C154.688 13.1009 154.395 13.5782 154.046 14.1592C153.815 13.8376 153.594 13.5367 153.378 13.2358C151.803 13.1216 150.373 12.5492 149.088 11.5186C149.207 13.4018 150.08 15.311 148.611 16.94C147.018 16.3278 146.324 14.5172 147.008 12.9452C147.249 12.3953 147.455 11.8298 147.753 11.0931C146.335 11.503 145.138 11.8765 143.925 12.1878C137.75 13.7598 131.472 14.3979 125.117 14.0451C119.707 13.7442 114.303 13.3707 108.903 12.9556C106.694 12.7844 104.506 12.3849 102.302 12.1515C100.673 11.9803 99.0343 11.8817 97.3955 11.8039C96.9588 11.7831 96.4861 11.8869 96.0751 12.0529C93.8301 12.9504 91.4103 12.9297 89.0882 13.4173C88.8981 13.4589 88.6207 13.4589 88.4923 13.3499C87.9631 12.8934 87.4083 13.132 86.8483 13.1891C84.444 13.4329 82.0396 13.7753 79.625 13.8843C76.5169 14.0192 73.3882 14.1229 70.2852 13.9517C66.7711 13.7546 63.2674 13.2825 59.7688 12.8363C56.0236 12.3538 52.2938 11.778 48.564 11.2073C46.6375 10.9116 44.788 11.3681 42.9693 11.8298C40.0667 12.5613 37.2051 13.4485 34.3333 14.2837C32.8126 14.7247 31.3022 15.202 29.7404 15.6741C29.5349 15.0671 29.9408 14.8907 30.3107 14.7507C31.6875 14.2163 33.0592 13.6664 34.4566 13.1839C36.4345 12.5043 38.433 11.8817 40.4212 11.228C40.6832 11.1398 40.94 11.0205 41.1815 10.7144C39.6505 10.6937 38.1196 10.6158 36.5938 10.6574C33.1054 10.7507 29.612 10.813 26.1339 11.0516C24.3872 11.171 22.6507 11.6016 20.9297 11.9958C18.1709 12.6288 15.4223 13.2928 12.6944 14.0503C11.6104 14.3512 10.4442 14.5898 9.56052 15.5859C9.99206 16.1773 10.4185 16.7688 10.8552 17.3498C11.7902 18.5897 12.1241 20.032 12.196 21.5417C12.2166 21.993 11.9905 22.4548 11.8775 22.9165C11.8004 22.9424 11.7234 22.9632 11.6463 22.9891V22.9684ZM91.174 11.2747C90.5678 11.1606 90.1979 11.0516 89.8177 11.0205C88.1018 10.8649 86.3859 10.7404 84.67 10.5847C78.7465 10.0555 72.8128 9.58863 66.8585 9.68721C62.5533 9.75984 58.243 9.88953 53.9378 10.0244C53.0336 10.0504 52.1089 10.1178 51.2612 10.5795C54.9807 11.254 58.6951 11.8869 62.4249 12.3694C64.9422 12.6962 67.4852 12.9608 70.018 13.0127C73.8711 13.0905 77.7293 12.9764 81.5875 12.9089C82.651 12.8882 83.7864 12.9504 84.7471 12.5925C85.5023 12.3123 86.2267 12.2449 86.9819 12.1411C88.3125 11.9543 89.6842 11.9751 91.174 11.2747ZM11.4151 21.3653C11.6463 19.5962 10.5726 17.4588 8.9543 16.5353C8.43542 17.9049 8.81559 19.1708 9.40126 20.3277C9.77115 21.054 10.4647 21.5728 11.4151 21.3653ZM9.43208 14.2319C11.0298 13.1113 11.8621 10.4654 11.112 9.04909C8.75907 10.7404 8.44055 12.5406 9.43208 14.2319ZM7.53122 16.9296C6.15953 17.1734 4.97791 18.5586 4.8392 19.9438C4.77241 20.6234 4.94709 21.1215 5.63037 21.4016C6.71437 20.115 7.36169 18.6935 7.52609 16.9296H7.53122ZM150.28 7.86104C151.75 8.53548 153.599 8.01668 154.493 6.72488C152.839 6.01932 151.205 6.42916 150.28 7.86104ZM148.95 6.96871C149.864 5.78586 150.342 4.68601 150.059 3.08812C149.664 3.45646 149.304 3.64323 149.191 3.92857C148.842 4.83127 148.508 5.75992 148.95 6.96871ZM149.849 10.647C150.491 12.0892 151.447 12.5873 153.06 12.3227C152.14 11.3577 151.2 10.73 149.849 10.647ZM6.15953 16.0891C4.94709 15.6067 3.19522 15.5392 2.42974 15.9646C2.31158 16.0321 2.28589 16.2707 2.16259 16.5664C3.5908 16.5301 4.87516 16.6028 6.15953 16.0891ZM148.498 15.809C148.832 14.8025 148.657 14.014 148.046 13.241C147.126 14.5743 147.254 15.3576 148.498 15.809ZM135.962 8.2657C134.354 8.93495 134 9.71833 134.673 10.8337C135.428 10.1904 136.034 9.50563 135.962 8.2657ZM5.27075 12.1722C5.65606 13.1528 6.26741 13.8946 7.46957 14.263C6.99693 13.1216 6.26227 12.5198 5.27075 12.1722Z" fill="#D04723"/>
<path d="M31.8312 8.47842C31.3175 9.24623 30.6496 9.19435 29.9098 8.86232C28.7128 8.32278 27.7675 7.54977 27.2641 6.27353C27.0791 5.80143 26.74 5.39158 26.478 4.96617C26.5654 4.86241 26.6167 4.74308 26.6578 4.74827C28.3994 4.94023 30.028 5.40714 31.261 6.78195C31.6925 7.26443 31.9289 7.80917 31.8261 8.47842H31.8312ZM28.2761 5.95188C28.3583 7.46157 30.0075 8.58217 31.1377 7.92849C30.4339 6.90128 29.6992 5.97263 28.2761 5.95188Z" fill="#D04723"/>
<path d="M113.059 18.5431C112.561 18.3822 112.16 18.2266 111.749 18.128C110.383 17.8115 109.196 17.2097 108.436 15.975C108.143 15.5081 107.737 14.9789 108.153 14.3823C108.492 13.8998 109.165 13.8895 109.936 14.3149C111.436 15.1449 112.356 16.5042 113.152 17.9672C113.203 18.0658 113.188 18.2058 113.178 18.3252C113.167 18.3978 113.1 18.4652 113.059 18.5379V18.5431ZM108.842 15.0567C109.355 16.5405 110.45 17.3291 111.878 17.2409C111.128 15.643 109.931 14.7818 108.842 15.0567Z" fill="#D04723"/>
<path d="M27.4594 9.27217C26.5963 9.01277 25.8257 8.71705 25.0345 8.5666C24.1252 8.3954 23.5909 7.8766 23.2672 7.04653C23.1336 6.70412 22.959 6.3721 22.7946 6.01413C22.8562 5.93112 22.9333 5.75473 22.9949 5.75992C24.4385 5.87405 25.8102 6.21127 26.9764 7.13473C27.8036 7.7936 27.9166 8.30202 27.4594 9.28254V9.27217ZM24.2485 6.76119C24.6183 7.86104 25.1064 8.08412 26.8018 8.01668C26.0928 7.28518 25.3016 6.94277 24.2485 6.76119Z" fill="#D04723"/>
<path d="M114.231 13.8428C115.839 14.8648 116.841 17.106 116.342 18.5379C115.644 18.1488 114.945 17.77 114.256 17.3706C113.563 16.9659 113.059 16.3849 112.823 15.6015C112.628 14.9582 112.818 14.6884 113.501 14.3823C113.774 14.2578 114 14.0243 114.231 13.8479V13.8428ZM115.541 17.2461C115.628 17.1579 115.716 17.0697 115.803 16.9867C115.469 16.4004 115.15 15.8038 114.791 15.2331C114.58 14.8959 114.185 14.6573 113.887 14.9893C113.702 15.1916 113.671 15.7052 113.789 15.9802C114.113 16.7428 114.822 17.023 115.541 17.2461Z" fill="#D04723"/>
<path d="M108.04 18.5534C107.501 18.2629 107.033 17.9828 106.54 17.7493C105.738 17.3654 105.286 16.691 104.988 15.9024C104.778 15.3473 104.634 14.761 104.444 14.1333C104.773 13.7805 105.143 13.8531 105.476 14.1696C106.221 14.8804 107.002 15.5652 107.66 16.3485C108.184 16.9711 108.533 17.7337 108.035 18.5534H108.04ZM107.326 17.2201C106.894 16.4212 106.391 15.9387 105.579 15.3888C105.867 16.4523 106.263 17.0334 107.326 17.2201Z" fill="#D04723"/>
</svg>
