<svg width="371" height="300" viewBox="0 0 371 300" fill="none" xmlns="http://www.w3.org/2000/svg">
<path fill-rule="evenodd" clip-rule="evenodd" d="M97.7846 5.51999C96.583 8.45692 95.5979 35.2461 95.5918 65.0514L95.5857 119.249L82.7401 117.334C31.501 109.688 17.6093 159.368 55.5088 214.725C77.2932 246.546 73.4475 261.337 38.0184 281.987C4.21475 301.695 10.2929 306.41 46.8749 288.859C94.1676 266.168 101.636 243.966 75.7623 202.992C56.0547 171.781 54.8287 156.081 70.785 139.164C87.3666 121.582 97.1106 123.637 97.1106 144.724C97.1106 181.031 106.141 249.507 112.207 259.218C116.004 265.29 121.887 260.044 137.505 236.662C168.015 190.995 165.837 190.638 224.945 251.026C274.869 302.034 284.671 308.554 268.224 279.81C256.138 258.681 255.894 259.413 274.967 259.413C296.574 259.413 318.963 252.429 337.636 239.864L352.946 229.559L354.859 239.15C365.417 292.119 371.891 287.065 370.9 226.628L370.065 175.544L361.678 174.581C355.947 173.919 353.291 175.014 353.291 178.027C353.291 181.473 347.072 182.714 324.91 183.681C289.868 185.215 268.767 194.346 248.708 216.655L235.329 231.535L215.914 208.451C177.963 163.327 160.808 162.647 134.568 205.222L123.034 223.938L120.457 193.642C118.154 166.584 120.121 117.559 126.571 41.3547C128.639 16.9048 105.113 -12.3821 97.7846 5.51999ZM7.90497 148.673C-5.12058 152.08 7.74028 277.712 21.1166 277.712C26.7983 277.712 27.8321 154.748 22.1809 150.616C19.1403 148.392 15.8832 146.73 14.9469 146.925C14.0075 147.121 10.8419 147.907 7.90497 148.673ZM336.319 202.471C353.73 215.204 301.216 248.233 272.216 242.792C242.319 237.183 281.005 198.845 316.874 198.537C324.519 198.473 333.272 200.241 336.319 202.471Z" fill="black"/>
<path fill-rule="evenodd" clip-rule="evenodd" d="M4.60893 124.007C-1.88402 133.919 -1.60344 137.017 6.00268 139.433C22.3799 144.63 31.2303 135.898 22.383 123.269C16.2163 114.461 10.7146 114.69 4.60893 124.007Z" fill="#EB651E"/>
</svg>
