<svg width="529" height="104" viewBox="0 0 529 104" fill="none" xmlns="http://www.w3.org/2000/svg">
<path fill-rule="evenodd" clip-rule="evenodd" d="M428.631 53.7909C435.922 56.3029 442.251 61.1759 448.049 67.7395C455.27 75.9121 463.061 82.9698 472.313 86.545C476.498 88.163 479.486 86.9792 482.357 82.2137C492.171 65.926 503.455 63.2561 517.514 73.0354C519.88 74.6778 522.655 75.2041 525.135 76.5803C526.444 77.3032 527.536 78.7448 528.728 79.8603C527.562 81.2871 526.27 84.0812 525.248 83.906C521.277 83.2282 516.866 82.7869 513.56 80.1151C504.808 73.0253 496.952 73.7399 489.718 83.7622C489.517 84.0366 489.33 84.3247 489.139 84.6128C480.287 97.8492 473.853 100.031 461.839 93.0129C457.837 90.6738 453.8 87.7182 450.559 83.8472C442.286 73.9579 432.467 69.6182 421.892 67.4906C399.856 63.0553 378.219 67.7318 356.528 72.3672C327.043 78.6658 297.565 85.2686 267.932 90.0175C241.174 94.3114 214.176 93.7798 187.434 88.7748C161.516 83.9232 135.742 77.6863 109.88 72.2644C107.471 71.759 104.742 72.1094 102.411 73.1174C85.4794 80.427 68.602 87.9605 51.728 95.5154C42.3582 99.7083 32.8473 102.722 22.8945 102.595C21.9292 102.581 20.9606 103.051 19.9932 103.294L17.4329 103.111C14.6942 102.176 11.9255 101.374 9.22388 100.274C4.47272 98.3428 1.31127 93.9627 0.254738 87.5215C-0.836095 80.8725 1.69235 75.3799 5.62507 72.3708C11.1247 68.1576 16.9815 64.1429 23.0664 62.0901C46.0035 54.3558 69.2875 51.4863 92.9391 55.0038C96.7079 55.5622 101.006 54.907 104.472 52.9397C122.739 42.5688 141.636 38.3731 161.263 41.9041C168.814 43.2649 176.363 45.7353 183.601 48.9773C199.737 56.2019 216.142 60.2648 233.113 58.383C237.857 57.8573 242.459 55.2236 247.156 53.7351C248.126 53.4298 249.115 53.2385 250.11 53.0817L252.103 52.7782C252.435 52.7259 252.767 52.6713 253.096 52.6136L253.861 54.7074L253.125 55.5681L251.668 57.3174C250.936 58.1828 250.189 59.0227 249.392 59.7628C236.19 72.0566 221.743 71.0254 207.1 66.422C195.746 62.8563 184.62 57.3851 173.143 55.2557C156.83 52.227 140.691 55.7915 125.039 62.4845L124.92 63.9914C134.111 67.1556 143.223 70.8306 152.504 73.3906C181.981 81.5199 211.706 87.019 241.87 86.9175C269.648 86.8236 296.76 80.5725 323.605 71.3295C343.988 64.3092 364.428 57.4914 385.013 51.668C399.513 47.5666 414.212 48.8211 428.633 53.7909H428.631ZM72.0998 67.6153C55.2676 69.5755 38.4052 71.2244 21.6267 73.8385C16.8554 74.5822 12.067 77.5248 7.7666 80.6598C3.50759 83.7664 3.92602 89.4229 8.22678 92.6827C9.67097 93.7774 11.4043 94.3393 13.0599 94.7284C22.6529 96.9772 31.7493 94.0572 40.5502 89.2803C50.8332 83.7028 61.0004 77.7469 71.2193 71.9443C72.8645 71.0105 74.4975 70.0293 76.1356 69.0712L75.8942 67.8559C74.6288 67.765 73.3495 67.4692 72.0998 67.6153ZM275.108 56.7947C280.535 60.9692 286.193 62.9294 292.256 63.6909C293.848 63.891 295.394 64.785 296.96 65.3611L297.089 67.5108C294.19 68.3857 291.306 69.3937 288.385 70.1077C284.171 71.1377 279.944 72.4058 275.692 72.7283C271.641 73.036 267.44 72.9238 263.504 71.756C260.174 70.7706 258.28 66.7861 258.75 61.8852C259.217 56.9895 261.69 53.9359 265.208 54.0725C268.554 54.199 272.304 54.6409 275.108 56.7947ZM291.085 20.6307C285.621 29.5475 279.776 38.0677 273.791 46.3649C272.447 48.23 269.921 48.5579 268.788 49.1483C264.243 48.7046 261.353 44.7457 262.276 39.8722C263.08 35.6298 264.728 30.7268 267.186 28.2022C272.291 22.9566 278.144 18.9965 283.786 14.7359C284.968 13.8425 286.571 13.598 287.971 13.6457C291.331 13.755 293.125 17.3026 291.083 20.6331L291.085 20.6307ZM261.938 0C262.939 2.04592 263.995 4.04326 264.902 6.17162C265.145 6.73704 264.933 7.69977 264.923 9.78085C263.76 18.4627 262.531 28.4273 261.044 38.3104C260.489 42.0098 258.617 45.4074 255.879 44.1577C253.958 43.281 251.84 40.1665 251.175 37.3764C248.887 27.7632 253.622 20.7974 256.519 13.2071C257.539 10.5428 258.569 7.88194 259.637 5.25784C260.365 3.4719 261.17 1.74893 261.938 0Z" fill="#CD6626"/>
</svg>
