<svg width="162" height="49" viewBox="0 0 162 49" fill="none" xmlns="http://www.w3.org/2000/svg">
<path d="M39.5162 18.0208C35.9935 16.2454 31.7246 18.9066 29.4105 23.8087C31.771 17.0425 26.7677 9.10635 29.3649 3.2251C21.7124 3.65017 25.795 17.8348 22.921 20.7754C23.013 12.9319 21.3421 6.02641 18.3745 0.145166C18.2825 -0.0408491 18.097 0.145166 18.097 0.145166V46.8358C18.6692 46.8892 19.2457 46.8736 19.8143 46.7891C21.357 46.5563 22.7818 45.992 23.7073 44.7801C24.1196 44.2917 24.4 43.7047 24.5216 43.0756C24.6432 42.4464 24.6019 41.7964 24.4016 41.188C24.0777 40.3957 23.1522 39.7434 22.4068 40.4424C22.0828 40.7685 22.0828 41.3273 22.6898 41.4207C23.1066 41.4674 22.2212 42.5392 21.2957 41.9796C19.4447 40.8611 21.3421 38.2941 23.4761 39.0857C24.3552 39.4118 24.8648 40.1622 25.8422 40.4891C27.4227 40.9165 29.0889 40.9007 30.6607 40.4416C32.8411 39.7901 35.5303 38.154 36.503 36.0991C35.6132 36.4274 34.6667 36.5717 33.7202 36.5234C32.0949 36.4767 31.2158 35.5395 29.6424 35.3994C28.4705 35.2765 27.2859 35.4038 26.1661 35.773C28.9426 34.7946 30.6143 33.3968 32.5636 31.0617C36.0863 26.8166 33.8594 23.2704 39.5162 18.0422V18.0208ZM13.6488 45.0603C14.4664 45.8834 15.4925 46.4652 16.6156 46.7424V0.0984644C16.6156 0.0984644 16.4772 -0.0875508 16.4308 0.0517627C14.1583 6.35253 10.3573 18.5338 10.4037 18.7665C10.8597 19.0586 11.2938 19.3855 11.6995 19.7448C13.5096 21.4277 14.6207 24.2749 12.2547 25.9569C10.6349 27.1269 8.08405 26.1905 7.02017 24.5132C5.62603 22.2715 6.64981 18.8646 7.34413 16.5303C8.05441 14.3802 8.35611 12.1146 8.23345 9.85199C8.00227 6.30583 5.35868 3.36521 5.35868 3.36521C5.48449 5.44779 5.48449 7.5367 5.35868 9.61848C4.80355 14.3821 1.60482 18.1142 0.308976 22.6855C-0.390843 25.2066 0.0770135 28.4733 1.92878 30.4823C2.95728 31.5999 4.80355 32.3456 6.28968 32.553C7.53992 32.7857 8.97416 32.6456 10.0899 33.3968C11.2065 34.1472 12.1469 36.5028 10.4595 37.1289C9.72037 37.4084 8.46463 36.9429 8.51102 36.0524C8.55741 35.4002 9.20533 35.3535 9.76597 35.773C9.99715 34.049 7.07678 33.4894 5.08112 34.8406C2.50987 36.6168 3.09095 41.0535 4.2948 42.0888C4.61798 39.7585 8.00227 39.8052 10.0899 41.4358C11.201 42.4149 11.8489 43.212 13.659 45.0294M44.2317 30.4348C49.2869 30.1086 54.3366 30.1553 59.3918 30.1086L89.7082 29.9226H104.868C105.052 29.9233 105.228 29.9971 105.359 30.128C105.489 30.259 105.562 30.4364 105.563 30.6216C105.562 30.8068 105.489 30.9844 105.359 31.1153C105.229 31.2463 105.052 31.3201 104.868 31.3205H89.7184L59.413 31.1337C54.3571 31.087 49.3073 31.1337 44.2529 30.8076C44.1137 30.8076 44.0673 30.715 44.0673 30.5749C44.0805 30.5355 44.1052 30.501 44.1382 30.476C44.1711 30.451 44.2109 30.4366 44.2521 30.4348" fill="#414141"/>
<path d="M161.802 30.8542C156.753 31.1804 151.697 31.1337 146.647 31.1804L116.327 31.3672H101.171C100.987 31.3665 100.811 31.2927 100.681 31.1618C100.551 31.0308 100.478 30.8534 100.477 30.6682C100.477 30.483 100.551 30.3054 100.681 30.1745C100.811 30.0435 100.987 29.9697 101.171 29.9693H116.327L146.647 30.1553C151.697 30.2028 156.753 30.1553 161.802 30.4822C161.942 30.4822 162.034 30.5748 161.988 30.7149C161.974 30.7541 161.949 30.7883 161.916 30.8132C161.883 30.838 161.844 30.8523 161.802 30.8542Z" fill="#414141"/>
<path fill-rule="evenodd" clip-rule="evenodd" d="M144.93 15.3135C144.513 15.0341 143.68 14.9415 142.358 14.9415C140.708 14.9382 139.061 15.1115 137.447 15.4584C137.352 15.5186 137.274 15.6007 137.217 15.698C137.161 15.7953 137.129 15.9048 137.123 16.0172C137.109 16.1122 137.118 16.2092 137.151 16.2995C137.183 16.3899 137.237 16.4707 137.308 16.5349C137.401 16.6339 137.864 16.6338 138.696 16.6806C140.239 16.7732 142.78 16.9133 143.15 17.6122C143.324 18.008 143.357 18.4528 143.243 18.8708C143.123 19.5353 142.816 20.1512 142.358 20.6454C141.863 21.227 141.246 21.6908 140.552 22.0033C139.857 22.3158 139.102 22.4692 138.342 22.4526C137.599 22.463 136.861 22.3195 136.176 22.0308C135.49 21.7421 134.87 21.3144 134.356 20.7745C133.698 20.0244 133.212 19.1383 132.932 18.1787C132.651 17.2191 132.583 16.2092 132.731 15.2201C133.199 12.2795 135.467 9.6658 139.597 7.33626C139.782 7.24285 140.013 7.14945 140.245 7.01014C140.893 6.72518 141.494 6.44576 141.309 6.07294C141.217 5.79352 141.032 5.70012 140.661 5.70012C140.429 5.70012 140.147 5.74682 139.69 5.79352C136.022 6.35236 133.384 7.9885 131.852 10.6956C130.001 13.9157 130.139 18.1141 130.88 20.0138C131.852 22.5768 133.523 24.3056 135.791 25.0979C136.581 25.3711 137.414 25.4972 138.249 25.47C138.512 25.4771 138.776 25.4621 139.036 25.4241C140.135 25.3602 141.195 24.9891 142.096 24.3523C143.599 23.3789 144.697 21.8857 145.182 20.1539C145.598 18.984 146.436 16.1835 144.904 15.2977L144.93 15.3135ZM149.192 17.275C149.18 17.275 149.168 17.2702 149.16 17.2616C149.151 17.253 149.147 17.2413 149.147 17.2291" fill="#414141"/>
<path fill-rule="evenodd" clip-rule="evenodd" d="M160.784 22.4068C160.692 24.043 160.044 27.8685 159.755 28.0078C159.71 28.0078 159.663 28.0553 159.617 28.0553C159.386 28.0553 159.293 27.6358 159.247 27.449C159.079 26.757 158.953 26.0551 158.872 25.3474C158.779 24.415 158.686 23.4833 158.593 22.5928C158.455 20.9622 158.269 19.2802 157.992 17.6488C157.945 17.5095 157.945 17.3227 157.899 17.1311C157.575 15.0604 156.835 10.8311 154.007 10.8311C151.178 10.8311 149.378 15.2163 149.183 17.1319L149.975 16.9918C150.53 16.8517 151.039 16.7591 151.548 16.6657C151.641 16.6657 151.734 16.6182 151.826 16.6182C152.525 16.5667 153.127 16.5208 153.682 16.5208C155.74 16.5208 156.742 16.8517 156.768 17.5039C156.86 18.5757 155.421 19.182 154.68 19.2746C153.615 19.4614 152.551 19.6007 151.528 19.7409L150.463 19.8857C150.278 19.9324 150.092 19.9324 149.908 19.9783C149.63 20.0258 149.353 20.0717 148.977 20.1184C148.93 20.724 148.792 22.7741 148.746 23.6646C148.699 24.4561 148.422 25.7614 147.717 25.668C147.162 25.5746 146.838 24.3168 146.792 23.8506C146.644 22.6589 146.566 21.4594 146.56 20.2585C146.549 18.3689 146.783 16.4859 147.254 14.6567C148.179 11.2974 149.897 9.00897 152.396 7.8905C153.021 7.59278 153.701 7.43403 154.392 7.42507C156.157 7.42507 157.594 8.59103 158.702 10.9237C159.557 12.7691 160.121 14.7377 160.373 16.7583C160.777 18.6105 160.902 20.5126 160.743 22.4021L160.784 22.4068Z" fill="#414141"/>
<path d="M127.918 20.8679C127.27 22.2199 125.552 25.3932 123.094 25.3932C120.363 25.3932 117.581 21.6602 114.866 14.3352V16.1059C114.866 18.813 114.866 20.1697 114.727 25.766C114.727 26.3249 114.588 26.7024 114.403 26.7024C114.357 26.7024 114.31 26.6565 114.264 26.6098C113.986 26.3249 113.709 25.1605 113.472 23.5291C113.174 20.6058 113.066 17.6661 113.148 14.7286V13.9829C113.148 12.1149 113.148 8.66133 113.847 7.96239C113.882 7.92161 113.924 7.88826 113.972 7.86432C114.02 7.84039 114.072 7.82636 114.125 7.82307C114.223 7.83267 114.318 7.86431 114.403 7.91568C114.866 8.2418 115.467 9.91911 116.208 12.0571C117.694 16.3489 119.916 22.8357 123.115 22.8357C123.37 22.8357 123.622 22.7882 123.86 22.6956C125.666 22.1367 126.545 19.3829 126.92 17.1927C127.413 14.1531 127.506 11.0621 127.198 7.9988C127.183 7.79482 127.152 7.59235 127.105 7.39326C127.013 6.78693 126.92 6.22334 127.059 6.03654C127.105 5.94313 127.244 5.94313 127.429 6.08324C128.458 6.73548 129.095 9.16317 129.188 12.5233C129.234 15.7901 128.771 18.9634 127.938 20.8061L127.918 20.8679Z" fill="#414141"/>
<path fill-rule="evenodd" clip-rule="evenodd" d="M111.183 16.5716C110.935 14.6829 110.402 12.8432 109.605 11.1154C108.54 8.92044 107.198 7.84867 105.573 7.84867C104.932 7.85928 104.3 8.00206 103.716 8.2682C101.402 9.30355 99.7769 11.3743 98.9442 14.5682C98.5112 16.275 98.2936 18.03 98.2963 19.7916C98.2933 20.9141 98.355 22.0357 98.481 23.151C98.481 23.2032 98.7586 25.6262 99.3145 25.7394H99.3609C100.101 25.7394 100.286 23.0323 100.286 22.9856C100.333 22.38 100.425 21.1689 100.523 20.3972C100.557 20.1645 100.573 19.9286 100.569 19.6927C100.829 19.6452 101.092 19.6135 101.356 19.6001C101.507 19.5589 101.663 19.5431 101.819 19.5534L102.791 19.4133L105.758 18.9938C106.406 18.8544 107.815 18.3423 107.707 17.3172C107.66 16.7117 106.678 16.38 104.786 16.38C104.231 16.38 103.624 16.4267 102.929 16.4734C102.415 16.5661 101.865 16.665 101.309 16.8043L100.615 16.9444C100.848 15.6599 101.336 14.436 102.05 13.346C102.605 12.507 103.716 11.0632 105.018 11.0632H105.11C107.707 11.1566 108.494 15.541 108.772 17.1771L108.818 17.3639C109.095 18.917 109.235 20.4439 109.373 21.9811C109.466 22.8201 109.512 23.7106 109.651 24.5695C109.743 25.2684 109.883 25.9673 109.975 26.5325C110.021 26.7185 110.114 27.0913 110.35 27.0913C110.397 27.0913 110.397 27.0914 110.443 27.0439C110.674 26.9045 111.322 23.3584 111.369 21.8156C111.494 20.0885 111.432 18.3526 111.183 16.6389V16.5716Z" fill="#414141"/>
<path d="M76.3219 9.71276C76.2747 9.01382 75.9979 6.82359 75.1644 6.82359H75.026C74.187 7.0571 73.8175 9.10643 73.8631 12.9328V15.2204C71.9193 14.5214 69.878 14.4755 67.9287 14.4755C67.1424 14.4755 66.3089 14.4755 65.4755 14.428V13.3056C65.4476 12.0418 65.3549 10.7802 65.1979 9.52595C65.1038 8.80361 64.9646 8.08795 64.7811 7.38322C64.6372 6.91699 64.4525 6.63203 64.2677 6.63203C64.2424 6.62895 64.2168 6.63162 64.1927 6.63984C64.1686 6.64806 64.1467 6.66162 64.1285 6.67952C63.0174 7.38322 62.8783 11.5816 62.8783 12.0471C62.8326 14.2887 62.7863 16.6238 62.8783 18.9534C63.3933 25.0673 63.8509 25.7663 64.1285 25.7663C64.6427 25.7663 64.9203 23.576 65.1979 21.3344C65.2451 21.0549 65.2451 20.8689 65.2907 20.6821C65.3834 19.9373 65.4298 19.2336 65.4755 18.4871C65.5148 18.1626 65.5305 17.8357 65.5226 17.5088H66.0361C66.4528 17.5088 66.8696 17.5563 67.2863 17.5563C68.1701 17.6022 69.0964 17.6489 70.0219 17.6489C71.3825 17.4943 72.6942 17.0475 73.8686 16.3389C73.915 16.2922 73.9614 16.2922 74.0077 16.2455V17.2294C73.9606 19.6056 74.9844 25.6729 75.6787 26.3718C75.7251 26.4185 75.7714 26.47 75.8178 26.47C76.3321 26.47 76.5122 23.9489 76.6513 21.3811L76.6969 21.009C76.7897 17.2389 76.6655 13.4679 76.3274 9.71276H76.3219ZM99.2217 7.38242C99.21 7.32952 99.1807 7.28222 99.1387 7.24838C99.0966 7.21455 99.0443 7.19621 98.9905 7.19641C98.8162 7.22457 98.6545 7.30578 98.5274 7.42913C97.9611 8.38078 97.4461 9.36241 96.9846 10.3697C96.5215 11.4415 96.0591 12.5133 95.6424 13.5898C95.1281 14.8943 94.5777 16.1782 94.0226 17.5088C93.4542 18.9172 92.6887 20.2367 91.7493 21.427C90.9622 22.4631 90.124 22.4061 89.2913 21.3344C88.4368 20.1925 87.7445 18.9364 87.2343 17.6022C86.9568 16.9499 86.5864 15.9193 86.2058 14.755C84.8172 10.7426 83.6086 7.47583 82.8215 7.47583H82.8011C82.7534 7.47496 82.7064 7.48764 82.6655 7.51242C82.6246 7.5372 82.5915 7.57307 82.5699 7.61593C81.8292 8.6877 84.9815 18.0676 85.8614 20.356C86.3647 21.7808 87.0849 23.1185 87.9955 24.3217C88.8282 25.357 89.7545 25.8747 90.68 25.8747C91.1145 25.8624 91.5405 25.7512 91.9262 25.5494C92.3119 25.3476 92.6471 25.0604 92.9068 24.7095C95.8736 21.1175 99.9522 8.98215 99.2115 7.39826L99.2217 7.38242ZM81.3818 14.5689V13.1188C81.3818 11.9544 81.1042 7.89535 80.7291 7.42438C80.59 7.14496 80.4508 7.00485 80.266 7.00485C79.7109 7.00485 79.2013 8.40274 79.155 9.00828C78.9299 12.1929 78.9144 15.3891 79.1086 18.5758C79.2941 21.9351 79.6645 25.9475 80.3588 25.9475H80.4052C81.3818 25.7607 81.3818 22.3238 81.3818 20.0251V18.9486C81.4282 17.504 81.3818 16.008 81.3818 14.5634V14.5689ZM61.0682 18.161C60.3788 16.5068 59.2378 15.0832 57.7774 14.0552C57.4071 13.7758 56.9903 13.4497 56.62 13.1647C55.5089 12.3257 54.3475 11.4407 53.2365 10.5091C52.943 10.2996 52.6988 10.0279 52.5211 9.71301C52.3434 9.39816 52.2365 9.04789 52.208 8.68691C52.1998 8.34203 52.2612 7.99905 52.3885 7.67877C52.5158 7.35848 52.7064 7.06754 52.9487 6.82359C53.9772 5.74707 55.9618 5.00064 58.6974 4.67452C58.8277 4.66809 58.9523 4.61922 59.0526 4.53527C59.1529 4.45132 59.2233 4.33684 59.2533 4.20909C59.2793 4.11823 59.2801 4.02195 59.2555 3.93069C59.231 3.83943 59.1821 3.75668 59.1142 3.69141C58.7902 3.26634 57.9056 3.03442 56.8417 3.03442C54.9172 3.06497 53.0573 3.73853 51.5546 4.94919C50.9085 5.44241 50.3814 6.07616 50.0127 6.80314C49.644 7.53012 49.4432 8.33154 49.4252 9.14759C49.4426 9.90376 49.6383 10.6449 49.996 11.3101C50.3538 11.9752 50.8635 12.5452 51.483 12.9732C51.8982 13.3104 52.3322 13.6238 52.7836 13.9104C53.4579 14.3924 54.1215 14.8896 54.7737 15.4017C54.9797 15.5885 55.1983 15.761 55.4264 15.9193C56.3204 16.6122 57.1424 17.3946 57.8797 18.2544C58.2131 18.6087 58.4557 19.0394 58.5865 19.5093C58.7174 19.9792 58.7325 20.4741 58.6306 20.9512C58.4963 21.3373 58.2692 21.684 57.9695 21.9603C57.6699 22.2367 57.3071 22.4341 56.9133 22.5351C55.8258 22.923 54.6825 23.1288 53.5298 23.1407C51.806 23.1278 50.1323 22.556 48.7568 21.5101C46.9467 20.2515 46.6228 18.8956 47.5019 16.3333L47.5491 16.2399L47.4563 16.2866C47.0901 16.46 46.767 16.7137 46.5107 17.0289C46.2544 17.3442 46.0713 17.7131 45.9749 18.1088C45.7986 18.7099 45.7446 19.3407 45.8162 19.9634C45.8878 20.5861 46.0835 21.1878 46.3916 21.7325C48.0114 24.2536 51.071 25.7916 54.4553 25.7916C56.1965 25.8355 57.9102 25.3482 59.3713 24.3937C61.4542 23.037 62.1077 20.6148 61.0839 18.1404L61.0682 18.161Z" fill="#414141"/>
<path fill-rule="evenodd" clip-rule="evenodd" d="M79.2425 0.383409C79.4155 0.700031 79.5704 1.02694 79.7057 1.36177C79.8905 1.78129 80.076 2.20082 80.2608 2.57285C80.3311 2.77908 80.476 2.95114 80.6665 3.05482C80.8571 3.15851 81.0794 3.18623 81.2893 3.13248C81.6597 3.08577 81.9836 2.94567 82.354 2.89976C82.7243 2.85227 83.0019 2.61955 83.4186 2.75965C83.463 2.93556 83.4694 3.11899 83.4374 3.29759C83.4054 3.47619 83.3357 3.64581 83.2331 3.79501C82.4468 5.28629 80.6618 5.56571 79.7104 4.40055C79.3428 3.94845 79.0711 3.42538 78.9119 2.86356C78.7527 2.30175 78.7095 1.71307 78.7849 1.1338C78.7809 0.977579 78.8227 0.823626 78.905 0.691161C78.9874 0.558695 79.1067 0.453585 79.248 0.38895L79.2425 0.383409Z" fill="#414141"/>
<path d="M61.0227 45.8781H63.1103L65.3828 40.0024L67.3737 45.8781H69.4614L72.5469 35.8452H71.0608L68.4022 44.8998L65.4347 35.8444H63.8919L64.7254 38.3188L62.1542 44.9457L59.9273 35.8444H58.3838L61.0219 45.8773L61.0227 45.8781ZM75.4217 46.0182C76.3442 45.9958 77.23 45.6498 77.9261 45.0399C78.0653 45.738 78.8524 45.9715 79.6387 45.9715C79.7637 45.9786 79.8895 45.9628 80.009 45.924L80.0554 44.8063C79.6387 44.8063 79.2683 44.7129 79.2683 44.2008V40.1425C79.2683 38.5531 78.2398 37.9008 76.3935 37.9008C75.4723 37.8968 74.5591 38.0726 73.7044 38.4185L74.0283 39.5417C74.7268 39.2855 75.4653 39.1574 76.2088 39.1634C77.3198 39.1634 77.8797 39.4428 77.8797 40.5201V41.3591L76.2088 41.405C74.8665 41.405 73.1492 41.8246 73.1492 43.7868C73.0564 45.2306 74.0283 46.023 75.4217 46.023V46.0182ZM75.8384 44.8586C75.0977 44.8586 74.5426 44.4858 74.5426 43.7401C74.5426 42.9945 75.1441 42.4768 76.2088 42.4768L77.8341 42.4301V44.2056C77.224 44.567 76.5429 44.7898 75.8384 44.8586ZM84.1332 49L87.8926 38.128H86.401L84.5964 43.4037L84.1749 44.7549L83.7582 43.4037L82.1847 38.128H80.6058L83.1102 45.8932H83.7118L82.7399 49H84.1332ZM95.7715 46.0594C97.9055 46.0594 99.4789 44.7549 99.4789 42.0003C99.4789 39.4792 98.2759 37.942 95.9562 37.942C93.7294 37.942 92.2488 39.4325 92.2488 42.0834C92.2024 44.5578 93.5446 46.0491 95.7715 46.0491V46.0594ZM95.8635 44.8372C94.1973 44.8372 93.683 43.5327 93.683 42.0367C93.683 40.6388 94.1517 39.1428 95.8179 39.1428C97.4841 39.1428 97.9519 40.6388 97.9519 42.0367C97.9519 43.4346 97.5352 44.8372 95.8635 44.8372ZM101.659 48.5235H103.141V39.2512H104.812V38.1336H103.115V37.6673C103.115 36.632 103.485 36.218 104.323 36.218C104.65 36.2148 104.976 36.2481 105.295 36.3161L105.526 35.1462C105.122 35.0211 104.7 34.9583 104.277 34.9602C102.837 34.9602 101.633 35.6125 101.633 37.6673V38.1336H100.523V39.252H101.633V48.5393L101.659 48.5235ZM114.593 46.0024C115.621 46.0171 116.642 45.8416 117.607 45.4847V40.9341H116.064V44.5578C115.625 44.6661 115.173 44.7133 114.722 44.6979C112.588 44.6979 110.782 43.5327 110.782 40.7789C110.782 38.0243 112.448 37 114.444 37C115.297 36.9902 116.145 37.1322 116.948 37.4196L117.365 36.2544C116.455 35.8181 115.45 35.6238 114.444 35.69C111.061 35.69 109.204 37.6056 109.204 40.9182C109.296 44.1391 111.292 46.0024 114.583 46.0024H114.593ZM119.633 45.8623H121.119V40.3285C121.329 40.0112 121.61 39.7482 121.94 39.5611C122.27 39.374 122.639 39.2681 123.017 39.252C123.329 39.252 123.642 39.2837 123.947 39.3446L124.179 38.0869C123.877 37.9988 123.564 37.9517 123.248 37.9467C122.822 37.9589 122.406 38.0756 122.035 38.2866C121.664 38.4977 121.349 38.7967 121.119 39.1578V38.1241H119.633V45.8892V45.8623ZM127.146 46.0024C128.068 45.9811 128.952 45.6348 129.646 45.024C129.784 45.723 130.577 45.9557 131.363 45.9557C131.488 45.9604 131.613 45.9446 131.734 45.909L131.78 44.7905C131.363 44.7905 130.993 44.6979 130.993 44.185V40.1267C130.993 38.5372 129.964 37.885 128.118 37.885C127.197 37.881 126.284 38.0568 125.429 38.4027L125.753 39.5267C126.436 39.274 127.159 39.1458 127.887 39.1483C128.998 39.1483 129.553 39.4277 129.553 40.5043V41.3433L127.887 41.39C126.545 41.39 124.827 41.8095 124.827 43.771C124.781 45.2156 125.753 46.0071 127.146 46.0071V46.0024ZM127.563 44.8428C126.822 44.8428 126.262 44.4699 126.262 43.7243C126.262 42.9794 126.869 42.461 127.933 42.461L129.553 42.4151V44.1905C128.945 44.5523 128.266 44.775 127.563 44.8428ZM136.882 46.0538C137.539 46.0538 138.194 45.9596 138.825 45.7744L138.594 44.61C138.083 44.7625 137.553 44.8409 137.02 44.8428C134.963 44.8428 134.377 43.9111 134.377 42.1356C134.377 40.0641 135.256 39.195 136.742 39.195C137.318 39.2021 137.886 39.3304 138.409 39.5726L138.825 38.4486C138.169 38.1006 137.437 37.9229 136.696 37.9317C134.331 37.9317 132.845 39.3763 132.845 42.1768C132.891 44.7652 134.053 46.0491 136.882 46.0491V46.0538ZM143.834 46.0491C144.716 46.0491 145.593 45.9082 146.431 45.6296L146.2 44.4652C145.51 44.6864 144.79 44.7962 144.065 44.7905C142.718 44.7905 141.561 44.371 141.494 42.3161H146.57V41.7984C146.57 39.2773 145.686 37.8803 143.484 37.8803C141.536 37.8803 140.008 39.0438 140.008 42.0779C140.008 45.1119 141.489 46.0435 143.808 46.0435L143.834 46.0491ZM141.536 41.2863C141.628 39.7333 142.415 38.9987 143.392 38.9987C144.502 38.9987 145.012 39.8884 145.012 41.2863H141.536Z" fill="#414141"/>
</svg>
