<svg width="138" height="41" viewBox="0 0 138 41" fill="none" xmlns="http://www.w3.org/2000/svg">
<path d="M33.6619 15.0787C30.6611 13.5931 27.0246 15.8198 25.0534 19.9215C27.0642 14.26 22.8021 7.6196 25.0145 2.69855C18.4958 3.05422 21.9735 14.923 19.5253 17.3835C19.6037 10.8206 18.1803 5.04251 15.6524 0.121465C15.574 -0.0341799 15.4159 0.121465 15.4159 0.121465V39.1891C15.9034 39.2339 16.3945 39.2207 16.8788 39.15C18.193 38.9553 19.4067 38.4831 20.1951 37.4691C20.5463 37.0604 20.7852 36.5692 20.8888 36.0428C20.9924 35.5164 20.9572 34.9725 20.7866 34.4634C20.5106 33.8005 19.7222 33.2547 19.0872 33.8395C18.8113 34.1124 18.8113 34.58 19.3284 34.6582C19.6834 34.6972 18.9292 35.594 18.1408 35.1258C16.564 34.1899 18.1803 32.042 19.9982 32.7043C20.7471 32.9772 21.1811 33.6051 22.0137 33.8786C23.36 34.2363 24.7794 34.223 26.1184 33.8389C27.9758 33.2938 30.2666 31.9248 31.0952 30.2054C30.3372 30.4801 29.5309 30.6008 28.7246 30.5604C27.3401 30.5213 26.5913 29.7371 25.251 29.6199C24.2526 29.5171 23.2436 29.6236 22.2897 29.9325C24.6548 29.1139 26.0788 27.9442 27.7393 25.9904C30.7401 22.4384 28.8432 19.4712 33.6619 15.0965V15.0787ZM11.6267 37.7035C12.3232 38.3923 13.1973 38.8791 14.154 39.111V0.0823885C14.154 0.0823885 14.0361 -0.0732568 13.9966 0.0433116C12.0608 5.31538 8.82287 15.5078 8.86239 15.7026C9.25089 15.947 9.62063 16.2205 9.96626 16.5212C11.5082 17.9293 12.4547 20.3116 10.4392 21.7191C9.05932 22.698 6.88641 21.9145 5.98014 20.511C4.79255 18.6353 5.66465 15.7847 6.25611 13.8315C6.86117 12.0324 7.11817 10.1367 7.01368 8.2435C6.81675 5.27631 4.56481 2.81579 4.56481 2.81579C4.67198 4.55835 4.67198 6.30622 4.56481 8.04812C4.09191 12.034 1.36707 15.1568 0.263202 18.9817C-0.332941 21.0912 0.065604 23.8246 1.64304 25.5056C2.51917 26.4408 4.09191 27.0647 5.35788 27.2382C6.42289 27.4329 7.64465 27.3157 8.59513 27.9442C9.54628 28.5721 10.3474 30.5432 8.90995 31.0671C8.28031 31.3009 7.21061 30.9114 7.25013 30.1663C7.28965 29.6206 7.84158 29.5815 8.31916 29.9325C8.51609 28.49 6.02837 28.0217 4.32836 29.1523C2.13804 30.6386 2.63304 34.3509 3.65853 35.2172C3.93383 33.2673 6.81675 33.3064 8.59513 34.6708C9.54159 35.49 10.0935 36.157 11.6355 37.6777M37.6788 25.4658C41.9851 25.1929 46.2867 25.232 50.593 25.1929L76.4181 25.0373H89.3322C89.4889 25.0378 89.6391 25.0996 89.7499 25.2092C89.8607 25.3187 89.9232 25.4672 89.9237 25.6221C89.9233 25.7771 89.8609 25.9257 89.7501 26.0353C89.6392 26.1449 89.489 26.2066 89.3322 26.207H76.4268L50.6111 26.0507C46.3042 26.0116 42.0026 26.0507 37.6969 25.7778C37.5784 25.7778 37.5389 25.7003 37.5389 25.5831C37.55 25.5501 37.5711 25.5212 37.5992 25.5003C37.6273 25.4794 37.6611 25.4674 37.6963 25.4658" fill="#767676"/>
<path d="M137.832 25.8168C133.53 26.0897 129.224 26.0506 124.921 26.0897L99.0931 26.246H86.1829C86.0262 26.2455 85.8761 26.1837 85.7653 26.0741C85.6545 25.9646 85.592 25.8161 85.5915 25.6612C85.5918 25.5062 85.6543 25.3576 85.7651 25.248C85.8759 25.1384 86.0262 25.0767 86.1829 25.0763H99.0931L124.921 25.232C129.224 25.2717 133.53 25.232 137.832 25.5055C137.95 25.5055 138.029 25.583 137.99 25.7002C137.978 25.733 137.957 25.7617 137.929 25.7825C137.901 25.8032 137.867 25.8152 137.832 25.8168Z" fill="#767676"/>
<path fill-rule="evenodd" clip-rule="evenodd" d="M123.458 12.8134C123.103 12.5796 122.394 12.5021 121.268 12.5021C119.862 12.4993 118.46 12.6443 117.084 12.9346C117.004 12.9849 116.937 13.0537 116.889 13.1351C116.841 13.2164 116.813 13.3081 116.808 13.4022C116.796 13.4816 116.804 13.5628 116.832 13.6384C116.859 13.714 116.905 13.7816 116.966 13.8353C117.045 13.9181 117.439 13.9181 118.149 13.9572C119.463 14.0347 121.627 14.1519 121.943 14.7367C122.091 15.0679 122.119 15.4401 122.022 15.7898C121.919 16.3459 121.658 16.8612 121.268 17.2748C120.847 17.7614 120.321 18.1494 119.729 18.4109C119.138 18.6724 118.495 18.8008 117.847 18.7868C117.214 18.7956 116.585 18.6755 116.001 18.4339C115.417 18.1924 114.89 17.8345 114.451 17.3827C113.891 16.7551 113.477 16.0137 113.238 15.2108C112.999 14.4078 112.941 13.5628 113.068 12.7352C113.466 10.2747 115.398 8.08771 118.916 6.1385C119.073 6.06035 119.271 5.98219 119.468 5.86563C120.02 5.62719 120.532 5.39339 120.375 5.08144C120.296 4.84764 120.138 4.76948 119.823 4.76948C119.625 4.76948 119.385 4.80856 118.995 4.84764C115.871 5.31524 113.623 6.68425 112.318 8.94939C110.741 11.6437 110.859 15.1567 111.49 16.7462C112.318 18.8908 113.742 20.3373 115.674 21.0003C116.347 21.2289 117.056 21.3344 117.768 21.3116C117.992 21.3176 118.216 21.305 118.438 21.2732C119.374 21.2198 120.277 20.9092 121.044 20.3764C122.325 19.562 123.26 18.3125 123.673 16.8635C124.028 15.8845 124.742 13.5413 123.436 12.8001L123.458 12.8134ZM127.09 14.4546C127.079 14.4546 127.069 14.4506 127.062 14.4433C127.055 14.4361 127.051 14.4264 127.051 14.4162" fill="#767676"/>
<path fill-rule="evenodd" clip-rule="evenodd" d="M136.964 18.7486C136.886 20.1176 136.334 23.3186 136.088 23.4351C136.049 23.4351 136.01 23.4749 135.97 23.4749C135.773 23.4749 135.694 23.1238 135.655 22.9675C135.511 22.3885 135.405 21.8012 135.335 21.2091C135.256 20.4289 135.177 19.6493 135.098 18.9042C134.98 17.5398 134.822 16.1324 134.586 14.7673C134.546 14.6508 134.546 14.4945 134.507 14.3342C134.231 12.6016 133.6 9.06278 131.191 9.06278C128.781 9.06278 127.248 12.732 127.082 14.3349L127.756 14.2176C128.229 14.1004 128.663 14.0229 129.096 13.9447C129.175 13.9447 129.254 13.905 129.333 13.905C129.929 13.862 130.441 13.8235 130.914 13.8235C132.667 13.8235 133.521 14.1004 133.543 14.6461C133.622 15.5429 132.395 16.0503 131.764 16.1278C130.857 16.2841 129.951 16.4006 129.079 16.5179L128.172 16.6391C128.015 16.6781 127.857 16.6781 127.699 16.7166C127.463 16.7563 127.226 16.7947 126.906 16.8338C126.867 17.3405 126.749 19.0559 126.709 19.801C126.67 20.4633 126.433 21.5555 125.833 21.4773C125.36 21.3992 125.084 20.3467 125.045 19.9566C124.919 18.9595 124.853 17.9559 124.847 16.951C124.838 15.3699 125.037 13.7943 125.438 12.2638C126.227 9.45289 127.69 7.53812 129.819 6.60226C130.351 6.35315 130.931 6.22031 131.519 6.21281C133.023 6.21281 134.247 7.18841 135.19 9.14027C135.919 10.6843 136.399 12.3315 136.614 14.0222C136.958 15.5721 137.065 17.1636 136.929 18.7446L136.964 18.7486Z" fill="#767676"/>
<path d="M108.967 17.4609C108.415 18.5921 106.952 21.2474 104.857 21.2474C102.532 21.2474 100.161 18.1239 97.8484 11.9947V13.4764C97.8484 15.7415 97.8484 16.8767 97.7305 21.5593C97.7305 22.0269 97.612 22.3428 97.4546 22.3428C97.415 22.3428 97.3755 22.3044 97.336 22.2654C97.0996 22.0269 96.8631 21.0526 96.6615 19.6876C96.4075 17.2416 96.3153 14.7818 96.3855 12.3239V11.7C96.3855 10.1369 96.3855 7.24723 96.981 6.6624C97.0105 6.62828 97.0466 6.60038 97.0872 6.58035C97.1279 6.56032 97.1721 6.54859 97.2174 6.54584C97.3013 6.55387 97.3824 6.58034 97.4546 6.62333C97.8484 6.8962 98.3608 8.29966 98.9918 10.0886C100.258 13.6797 102.151 19.1074 104.876 19.1074C105.093 19.1074 105.308 19.0677 105.511 18.9902C107.048 18.5226 107.797 16.2184 108.117 14.3857C108.537 11.8424 108.616 9.25605 108.354 6.69287C108.341 6.5222 108.315 6.35279 108.275 6.1862C108.196 5.67886 108.117 5.20729 108.235 5.05098C108.275 4.97283 108.393 4.97282 108.551 5.09006C109.427 5.63581 109.97 7.66715 110.049 10.4787C110.088 13.2121 109.694 15.8673 108.984 17.4092L108.967 17.4609Z" fill="#767676"/>
<path fill-rule="evenodd" clip-rule="evenodd" d="M94.7116 13.866C94.4998 12.2857 94.0465 10.7464 93.3672 9.30066C92.4603 7.46404 91.3169 6.56726 89.9324 6.56726C89.3865 6.57613 88.8483 6.6956 88.3509 6.91829C86.3796 7.7846 84.9951 9.51723 84.2858 12.1897C83.917 13.6179 83.7316 15.0863 83.7338 16.5604C83.7314 17.4995 83.7839 18.4381 83.8913 19.3712C83.8913 19.415 84.1277 21.4423 84.6013 21.537H84.6408C85.2711 21.537 85.4292 19.2719 85.4292 19.2328C85.4687 18.7261 85.5471 17.7128 85.6308 17.067C85.6596 16.8723 85.673 16.6749 85.6696 16.4776C85.8913 16.4378 86.1151 16.4113 86.3401 16.4001C86.4687 16.3656 86.602 16.3524 86.7346 16.361L87.5626 16.2438L90.0905 15.8927C90.6424 15.7762 91.8427 15.3476 91.7503 14.4899C91.7108 13.9833 90.8741 13.7058 89.2619 13.7058C88.789 13.7058 88.2719 13.7448 87.6804 13.7839C87.2424 13.8614 86.7742 13.9442 86.3006 14.0608L85.7092 14.178C85.9074 13.1032 86.3232 12.0791 86.9316 11.1671C87.4045 10.465 88.3509 9.25694 89.4595 9.25694H89.5379C91.7503 9.3351 92.4208 13.0037 92.6572 14.3727L92.6967 14.529C92.9332 15.8285 93.0517 17.1061 93.1696 18.3923C93.2487 19.0944 93.2882 19.8395 93.4061 20.5581C93.4851 21.1429 93.6037 21.7278 93.682 22.2007C93.7216 22.3563 93.8006 22.6683 94.0022 22.6683C94.0417 22.6683 94.0417 22.6683 94.0813 22.6285C94.2782 22.512 94.8301 19.5448 94.8696 18.2539C94.9761 16.8087 94.9232 15.3563 94.7116 13.9223V13.866Z" fill="#767676"/>
<path d="M65.0149 8.127C64.9747 7.54217 64.739 5.70953 64.0289 5.70953H63.9111C63.1964 5.90492 62.8815 7.61966 62.9204 10.8213V12.7354C61.2646 12.1506 59.5257 12.1122 57.8652 12.1122C57.1954 12.1122 56.4854 12.1122 55.7754 12.0724V11.1333C55.7516 10.0758 55.6727 9.02017 55.5389 7.97069C55.4588 7.36628 55.3402 6.76747 55.1839 6.17779C55.0614 5.78769 54.9039 5.54925 54.7465 5.54925C54.725 5.54667 54.7032 5.54891 54.6827 5.55578C54.6622 5.56266 54.6435 5.57401 54.628 5.58899C53.6815 6.17779 53.563 9.69074 53.563 10.0802C53.5241 11.9559 53.4846 13.9097 53.563 15.8589C54.0017 20.9747 54.3915 21.5595 54.628 21.5595C55.066 21.5595 55.3025 19.7269 55.5389 17.8512C55.5791 17.6174 55.5791 17.4617 55.618 17.3054C55.697 16.6822 55.7365 16.0934 55.7754 15.4688C55.8089 15.1973 55.8223 14.9237 55.8156 14.6502H56.253C56.608 14.6502 56.963 14.6899 57.318 14.6899C58.0709 14.7284 58.8599 14.7674 59.6483 14.7674C60.8073 14.6381 61.9247 14.2643 62.9251 13.6713C62.9646 13.6322 63.0041 13.6322 63.0436 13.5931V14.4164C63.0034 16.4047 63.8756 21.4814 64.467 22.0662C64.5065 22.1053 64.546 22.1483 64.5856 22.1483C65.0236 22.1483 65.177 20.0388 65.2956 17.8903L65.3344 17.579C65.4135 14.4243 65.3076 11.2691 65.0196 8.127H65.0149ZM84.5222 6.17713C84.5122 6.13286 84.4873 6.09329 84.4515 6.06497C84.4156 6.03666 84.3711 6.02131 84.3252 6.02149C84.1767 6.04505 84.039 6.113 83.9307 6.21621C83.4484 7.01249 83.0097 7.83385 82.6165 8.67673C82.222 9.57351 81.8281 10.4703 81.4731 11.371C81.0351 12.4626 80.5662 13.5368 80.0933 14.6502C79.6092 15.8287 78.9571 16.9327 78.1568 17.9287C77.4864 18.7957 76.7723 18.748 76.063 17.8512C75.3351 16.8958 74.7453 15.8447 74.3107 14.7284C74.0743 14.1826 73.7588 13.3203 73.4346 12.346C72.2517 8.98868 71.2222 6.25528 70.5517 6.25528H70.5343C70.4936 6.25456 70.4536 6.26517 70.4187 6.2859C70.3839 6.30663 70.3557 6.33665 70.3373 6.37252C69.7064 7.2693 72.3917 15.1178 73.1412 17.0326C73.5699 18.2247 74.1835 19.3441 74.9591 20.3508C75.6685 21.2171 76.4575 21.6503 77.2459 21.6503C77.616 21.64 77.979 21.5469 78.3075 21.378C78.636 21.2092 78.9216 20.9689 79.1428 20.6753C81.6701 17.6697 85.1444 7.51568 84.5135 6.19038L84.5222 6.17713ZM69.3252 12.1903V10.977C69.3252 10.0027 69.0888 6.60631 68.7693 6.21223C68.6507 5.97843 68.5322 5.8612 68.3748 5.8612C67.9019 5.8612 67.4678 7.03086 67.4283 7.53754C67.2366 10.2022 67.2234 12.8766 67.3888 15.543C67.5469 18.3539 67.8623 21.7112 68.4538 21.7112H68.4933C69.3252 21.5549 69.3252 18.6791 69.3252 16.7557V15.855C69.3648 14.6462 69.3252 13.3944 69.3252 12.1857V12.1903ZM52.021 15.196C51.4338 13.8118 50.4618 12.6206 49.2178 11.7605C48.9023 11.5267 48.5473 11.2538 48.2318 11.0154C47.2854 10.3133 46.296 9.57285 45.3496 8.7933C45.0996 8.61803 44.8916 8.39066 44.7402 8.12721C44.5888 7.86377 44.4978 7.57068 44.4735 7.26864C44.4665 6.98006 44.5188 6.69308 44.6272 6.42509C44.7357 6.15709 44.898 5.91366 45.1044 5.70953C45.9806 4.80878 47.6712 4.18421 50.0015 3.91133C50.1125 3.90595 50.2187 3.86506 50.3041 3.79482C50.3895 3.72458 50.4495 3.62879 50.4751 3.52189C50.4972 3.44587 50.4978 3.3653 50.4769 3.28894C50.456 3.21258 50.4144 3.14334 50.3565 3.08873C50.0805 2.73306 49.327 2.539 48.4207 2.539C46.7813 2.56457 45.197 3.12816 43.9168 4.14116C43.3665 4.55385 42.9175 5.08413 42.6034 5.69242C42.2893 6.30071 42.1183 6.97129 42.103 7.6541C42.1178 8.28682 42.2845 8.90699 42.5892 9.46352C42.894 10.0201 43.3281 10.497 43.8559 10.8551C44.2095 11.1372 44.5793 11.3995 44.9638 11.6393C45.5383 12.0426 46.1035 12.4587 46.6591 12.8871C46.8346 13.0434 47.0208 13.1878 47.215 13.3203C47.9766 13.9 48.6768 14.5547 49.3049 15.2741C49.5889 15.5705 49.7956 15.9309 49.9071 16.3241C50.0185 16.7173 50.0314 17.1314 49.9446 17.5306C49.8301 17.8537 49.6367 18.1437 49.3815 18.375C49.1262 18.6062 48.8171 18.7714 48.4817 18.8559C47.5553 19.1805 46.5814 19.3527 45.5994 19.3626C44.1311 19.3518 42.7053 18.8734 41.5336 17.9982C39.9917 16.9451 39.7157 15.8106 40.4646 13.6667L40.5048 13.5885L40.4257 13.6276C40.1138 13.7727 39.8386 13.9849 39.6202 14.2487C39.4019 14.5125 39.246 14.8212 39.1638 15.1522C39.0136 15.6553 38.9676 16.1831 39.0286 16.7041C39.0896 17.2251 39.2563 17.7286 39.5188 18.1843C40.8986 20.2938 43.5049 21.5807 46.3878 21.5807C47.8711 21.6174 49.3309 21.2097 50.5755 20.4111C52.3499 19.2758 52.9065 17.2491 52.0344 15.1787L52.021 15.196Z" fill="#767676"/>
<path fill-rule="evenodd" clip-rule="evenodd" d="M67.5029 0.320812C67.6503 0.58574 67.7822 0.859278 67.8974 1.13944C68.0548 1.49047 68.2129 1.8415 68.3703 2.15279C68.4302 2.32536 68.5536 2.46932 68.7159 2.55608C68.8782 2.64283 69.0676 2.66603 69.2464 2.62105C69.5619 2.58197 69.8379 2.46474 70.1534 2.42633C70.4689 2.38659 70.7053 2.19187 71.0603 2.3091C71.0981 2.45628 71.1036 2.60977 71.0763 2.75921C71.049 2.90865 70.9897 3.05057 70.9022 3.17541C70.2324 4.42323 68.7119 4.65702 67.9014 3.68209C67.5883 3.3038 67.3568 2.86614 67.2212 2.39604C67.0857 1.92595 67.0488 1.43339 67.1131 0.948692C67.1096 0.817974 67.1452 0.689157 67.2154 0.578318C67.2856 0.467479 67.3872 0.37953 67.5076 0.325448L67.5029 0.320812Z" fill="#767676"/>
<path d="M51.9823 38.3878H53.7607L55.6965 33.4714L57.3924 38.3878H59.1708L61.7992 29.9929H60.5332L58.2686 37.5692L55.7407 29.9922H54.4265L55.1365 32.0626L52.9462 37.6076L51.0492 29.9922H49.7344L51.9816 38.3871L51.9823 38.3878ZM64.2481 38.505C65.034 38.4863 65.7885 38.1968 66.3815 37.6864C66.5 38.2706 67.1705 38.466 67.8403 38.466C67.9468 38.4719 68.054 38.4587 68.1558 38.4262L68.1953 37.491C67.8403 37.491 67.5249 37.4129 67.5249 36.9844V33.5886C67.5249 32.2587 66.6487 31.7129 65.076 31.7129C64.2912 31.7095 63.5133 31.8566 62.7852 32.1461L63.0612 33.0859C63.6562 32.8715 64.2853 32.7643 64.9186 32.7693C65.865 32.7693 66.3419 33.0031 66.3419 33.9046V34.6066L64.9186 34.645C63.7752 34.645 62.3123 34.9961 62.3123 36.638C62.2333 37.846 63.0612 38.509 64.2481 38.509V38.505ZM64.6031 37.5347C63.9721 37.5347 63.4992 37.2228 63.4992 36.5989C63.4992 35.975 64.0116 35.5418 64.9186 35.5418L66.3031 35.5027V36.9883C65.7834 37.2907 65.2032 37.4772 64.6031 37.5347ZM71.6691 41L74.8715 31.903H73.6008L72.0636 36.3174L71.7046 37.448L71.3495 36.3174L70.0092 31.903H68.6642L70.7976 38.4004H71.31L70.4821 41H71.6691ZM81.5831 38.5395C83.401 38.5395 84.7413 37.448 84.7413 35.1431C84.7413 33.0336 83.7165 31.7474 81.7405 31.7474C79.8436 31.7474 78.5823 32.9945 78.5823 35.2126C78.5428 37.2831 79.6862 38.5309 81.5831 38.5309V38.5395ZM81.6615 37.5169C80.2421 37.5169 79.804 36.4254 79.804 35.1736C79.804 34.0039 80.2033 32.7521 81.6226 32.7521C83.042 32.7521 83.4405 34.0039 83.4405 35.1736C83.4405 36.3432 83.0855 37.5169 81.6615 37.5169ZM86.5987 40.6013H87.8607V32.8429H89.2841V31.9077H87.8386V31.5176C87.8386 30.6512 88.1541 30.3049 88.8681 30.3049C89.1461 30.3022 89.424 30.33 89.696 30.387L89.8929 29.4081C89.5481 29.3033 89.1893 29.2509 88.8286 29.2524C87.6021 29.2524 86.5766 29.7982 86.5766 31.5176V31.9077H85.6308V32.8435H86.5766V40.6145L86.5987 40.6013ZM97.6167 38.4918C98.4919 38.5041 99.3619 38.3573 100.183 38.0586V34.251H98.8692V37.2831C98.4953 37.3737 98.1106 37.4132 97.7258 37.4003C95.9079 37.4003 94.37 36.4254 94.37 34.1211C94.37 31.8163 95.7894 30.9592 97.4894 30.9592C98.2159 30.951 98.9381 31.0698 99.6228 31.3102L99.9778 30.3353C99.2027 29.9703 98.346 29.8077 97.4894 29.8631C94.6071 29.8631 93.0257 31.4659 93.0257 34.2377C93.1041 36.9327 94.8041 38.4918 97.6079 38.4918H97.6167ZM101.91 38.3746H103.176V33.7443C103.354 33.4787 103.594 33.2587 103.875 33.1021C104.156 32.9456 104.47 32.857 104.792 32.8435C105.058 32.8435 105.324 32.87 105.585 32.921L105.782 31.8686C105.525 31.7949 105.258 31.7555 104.989 31.7514C104.626 31.7615 104.272 31.8592 103.955 32.0358C103.639 32.2124 103.372 32.4626 103.176 32.7647V31.8997H101.91V38.3971V38.3746ZM108.31 38.4918C109.095 38.474 109.848 38.1842 110.439 37.6732C110.557 38.258 111.232 38.4527 111.902 38.4527C112.008 38.4567 112.115 38.4434 112.217 38.4136L112.257 37.4778C111.902 37.4778 111.586 37.4003 111.586 36.9711V33.5754C111.586 32.2454 110.71 31.6997 109.138 31.6997C108.353 31.6963 107.575 31.8434 106.847 32.1329L107.123 33.0734C107.705 32.8619 108.321 32.7547 108.941 32.7568C109.887 32.7568 110.36 32.9906 110.36 33.8913V34.5934L108.941 34.6325C107.797 34.6325 106.334 34.9835 106.334 36.6247C106.295 37.8334 107.123 38.4958 108.31 38.4958V38.4918ZM108.665 37.5215C108.034 37.5215 107.556 37.2095 107.556 36.5856C107.556 35.9624 108.073 35.5286 108.98 35.5286L110.36 35.4902V36.9757C109.842 37.2784 109.263 37.4648 108.665 37.5215ZM116.603 38.5348C117.163 38.5348 117.721 38.456 118.259 38.301L118.062 37.3268C117.626 37.4543 117.175 37.5199 116.721 37.5215C114.968 37.5215 114.469 36.7419 114.469 35.2564C114.469 33.5231 115.218 32.7958 116.484 32.7958C116.975 32.8018 117.458 32.9091 117.904 33.1118L118.259 32.1713C117.7 31.8801 117.076 31.7314 116.445 31.7388C114.43 31.7388 113.164 32.9475 113.164 35.2908C113.203 37.4566 114.193 38.5309 116.603 38.5309V38.5348ZM122.525 38.5309C123.277 38.5309 124.024 38.413 124.738 38.1798L124.541 37.2056C123.953 37.3906 123.339 37.4825 122.722 37.4778C121.575 37.4778 120.589 37.1268 120.532 35.4074H124.856V34.9742C124.856 32.8647 124.103 31.6957 122.227 31.6957C120.567 31.6957 119.266 32.6693 119.266 35.208C119.266 37.7467 120.528 38.5262 122.503 38.5262L122.525 38.5309ZM120.567 34.5457C120.646 33.2462 121.316 32.6316 122.149 32.6316C123.095 32.6316 123.529 33.376 123.529 34.5457H120.567Z" fill="#767676"/>
</svg>
