<svg width="162" height="53" viewBox="0 0 162 53" fill="none" xmlns="http://www.w3.org/2000/svg">
<path d="M39.5162 19.4919C35.9935 17.5715 31.7246 20.45 29.4105 25.7522C31.771 18.4337 26.7677 9.84972 29.3649 3.48838C21.7124 3.94814 25.795 19.2907 22.921 22.4714C23.013 13.9876 21.3421 6.51836 18.3745 0.157016C18.2825 -0.0441838 18.097 0.157016 18.097 0.157016V50.6591C18.6692 50.7169 19.2457 50.7 19.8143 50.6086C21.357 50.3569 22.7818 49.7464 23.7073 48.4356C24.1196 47.9073 24.4 47.2724 24.5216 46.5919C24.6432 45.9115 24.6019 45.2084 24.4016 44.5503C24.0777 43.6933 23.1522 42.9878 22.4068 43.7438C22.0828 44.0965 22.0828 44.701 22.6898 44.802C23.1066 44.8525 22.2212 46.0118 21.2957 45.4065C19.4447 44.1967 21.3421 41.4202 23.4761 42.2763C24.3552 42.6291 24.8648 43.4407 25.8422 43.7943C27.4227 44.2566 29.0889 44.2395 30.6607 43.7429C32.8411 43.0383 35.5303 41.2686 36.503 39.046C35.6132 39.4011 34.6667 39.5571 33.7202 39.5049C32.0949 39.4544 31.2158 38.4407 29.6424 38.2891C28.4705 38.1562 27.2859 38.2939 26.1661 38.6933C28.9426 37.635 30.6143 36.123 32.5636 33.5973C36.0863 29.0057 33.8594 25.17 39.5162 19.515V19.4919ZM13.6488 48.7387C14.4664 49.629 15.4925 50.2583 16.6156 50.5581V0.106502C16.6156 0.106502 16.4772 -0.0946978 16.4308 0.0559882C14.1583 6.87111 10.3573 20.0467 10.4037 20.2984C10.8597 20.6144 11.2938 20.968 11.6995 21.3567C13.5096 23.1769 14.6207 26.2565 12.2547 28.0759C10.6349 29.3413 8.08405 28.3285 7.02017 26.5142C5.62603 24.0896 6.64981 20.4046 7.34413 17.8797C8.05441 15.554 8.35611 13.1035 8.23345 10.6562C8.00227 6.82059 5.35868 3.63992 5.35868 3.63992C5.48449 5.8925 5.48449 8.15194 5.35868 10.4037C4.80355 15.5561 1.60482 19.5929 0.308976 24.5373C-0.390843 27.2642 0.0770135 30.7976 1.92878 32.9706C2.95728 34.1795 4.80355 34.986 6.28968 35.2103C7.53992 35.4621 8.97416 35.3105 10.0899 36.123C11.2065 36.9347 12.1469 39.4826 10.4595 40.1599C9.72037 40.4621 8.46463 39.9587 8.51102 38.9955C8.55741 38.29 9.20533 38.2395 9.76597 38.6933C9.99715 36.8285 7.07678 36.2232 5.08112 37.6847C2.50987 39.6059 3.09095 44.4048 4.2948 45.5246C4.61798 43.0041 8.00227 43.0546 10.0899 44.8183C11.201 45.8774 11.8489 46.7395 13.659 48.7053M44.2317 32.9192C49.2869 32.5665 54.3366 32.617 59.3918 32.5665L89.7082 32.3653H104.868C105.052 32.366 105.228 32.4458 105.359 32.5875C105.489 32.7291 105.562 32.921 105.563 33.1213C105.562 33.3217 105.489 33.5137 105.359 33.6554C105.229 33.797 105.052 33.8768 104.868 33.8773H89.7184L59.413 33.6752C54.3571 33.6247 49.3073 33.6752 44.2529 33.3225C44.1137 33.3225 44.0673 33.2223 44.0673 33.0708C44.0805 33.0282 44.1052 32.9909 44.1382 32.9638C44.1711 32.9368 44.2109 32.9212 44.2521 32.9192" fill="#414141"/>
<path d="M161.802 33.373C156.753 33.7257 151.697 33.6752 146.647 33.7257L116.327 33.9278H101.171C100.987 33.9271 100.811 33.8472 100.681 33.7056C100.551 33.5639 100.478 33.372 100.477 33.1718C100.477 32.9714 100.551 32.7794 100.681 32.6377C100.811 32.496 100.987 32.4162 101.171 32.4158H116.327L146.647 32.617C151.697 32.6683 156.753 32.617 161.802 32.9706C161.942 32.9706 162.034 33.0707 161.988 33.2223C161.974 33.2647 161.949 33.3017 161.916 33.3285C161.883 33.3554 161.844 33.3709 161.802 33.373Z" fill="#414141"/>
<path fill-rule="evenodd" clip-rule="evenodd" d="M144.93 16.5636C144.513 16.2614 143.68 16.1612 142.358 16.1612C140.708 16.1576 139.061 16.3451 137.447 16.7203C137.352 16.7854 137.274 16.8743 137.217 16.9795C137.161 17.0847 137.129 17.2031 137.123 17.3248C137.109 17.4275 137.118 17.5324 137.151 17.6301C137.183 17.7278 137.237 17.8153 137.308 17.8847C137.401 17.9917 137.864 17.9917 138.696 18.0422C140.239 18.1424 142.78 18.2939 143.15 19.0499C143.324 19.478 143.357 19.9592 143.243 20.4113C143.123 21.13 142.816 21.7962 142.358 22.3308C141.863 22.9598 141.246 23.4615 140.552 23.7995C139.857 24.1375 139.102 24.3034 138.342 24.2854C137.599 24.2968 136.861 24.1415 136.176 23.8292C135.49 23.517 134.87 23.0544 134.356 22.4703C133.698 21.659 133.212 20.7007 132.932 19.6627C132.651 18.6247 132.583 17.5324 132.731 16.4626C133.199 13.2819 135.467 10.4548 139.597 7.93514C139.782 7.83411 140.013 7.73308 140.245 7.58239C140.893 7.27417 141.494 6.97194 141.309 6.56869C141.217 6.26646 141.032 6.16543 140.661 6.16543C140.429 6.16543 140.147 6.21595 139.69 6.26646C136.022 6.87092 133.384 8.64062 131.852 11.5687C130.001 15.0516 130.139 19.5928 130.88 21.6476C131.852 24.4198 133.523 26.2897 135.791 27.1467C136.581 27.4423 137.414 27.5786 138.249 27.5491C138.512 27.5568 138.776 27.5406 139.036 27.4995C140.135 27.4304 141.195 27.029 142.096 26.3402C143.599 25.2874 144.697 23.6722 145.182 21.7991C145.598 20.5337 146.436 17.5046 144.904 16.5465L144.93 16.5636ZM149.192 18.6852C149.18 18.6852 149.168 18.68 149.16 18.6707C149.151 18.6614 149.147 18.6487 149.147 18.6356" fill="#414141"/>
<path fill-rule="evenodd" clip-rule="evenodd" d="M160.784 24.2359C160.692 26.0056 160.044 30.1435 159.755 30.2942C159.71 30.2942 159.663 30.3456 159.617 30.3456C159.386 30.3456 159.293 29.8918 159.247 29.6897C159.079 28.9412 158.953 28.182 158.872 27.4166C158.779 26.408 158.686 25.4003 158.593 24.4371C158.455 22.6734 158.269 20.8541 157.992 19.0895C157.945 18.9388 157.945 18.7368 157.899 18.5296C157.575 16.2898 156.835 11.7153 154.007 11.7153C151.178 11.7153 149.378 16.4585 149.183 18.5304L149.975 18.3789C150.53 18.2273 151.039 18.1272 151.548 18.0261C151.641 18.0261 151.734 17.9748 151.826 17.9748C152.525 17.9191 153.127 17.8695 153.682 17.8695C155.74 17.8695 156.742 18.2273 156.768 18.9328C156.86 20.0921 155.421 20.7479 154.68 20.8481C153.615 21.0501 152.551 21.2008 151.528 21.3524L150.463 21.509C150.278 21.5595 150.092 21.5595 149.908 21.6092C149.63 21.6606 149.353 21.7102 148.977 21.7607C148.93 22.4157 148.792 24.6332 148.746 25.5964C148.699 26.4526 148.422 27.8644 147.717 27.7634C147.162 27.6623 146.838 26.3019 146.792 25.7976C146.644 24.5086 146.566 23.2112 146.56 21.9123C146.549 19.8684 146.783 17.8317 147.254 15.8532C148.179 12.2196 149.897 9.74439 152.396 8.53463C153.021 8.2126 153.701 8.04089 154.392 8.0312C156.157 8.0312 157.594 9.29234 158.702 11.8155C159.557 13.8114 160.121 15.9408 160.373 18.1263C160.777 20.1297 160.902 22.1871 160.743 24.2308L160.784 24.2359Z" fill="#414141"/>
<path d="M127.918 22.5714C127.27 24.0337 125.552 27.4661 123.094 27.4661C120.363 27.4661 117.581 23.4284 114.866 15.5054V17.4207C114.866 20.3488 114.866 21.8162 114.727 27.8694C114.727 28.4738 114.588 28.8822 114.403 28.8822C114.357 28.8822 114.31 28.8326 114.264 28.782C113.986 28.4738 113.709 27.2144 113.472 25.4498C113.174 22.2879 113.066 19.1082 113.148 15.9309V15.1244C113.148 13.1038 113.148 9.36838 113.847 8.61238C113.882 8.56827 113.924 8.53219 113.972 8.50631C114.02 8.48042 114.072 8.46524 114.125 8.46169C114.223 8.47207 114.318 8.5063 114.403 8.56186C114.866 8.9146 115.467 10.7288 116.208 13.0413C117.694 17.6835 119.916 24.6998 123.115 24.6998C123.37 24.6998 123.622 24.6484 123.86 24.5483C125.666 23.9438 126.545 20.9652 126.92 18.5962C127.413 15.3085 127.506 11.9651 127.198 8.65176C127.183 8.43113 127.152 8.21214 127.105 7.99679C127.013 7.34096 126.92 6.73137 127.059 6.52931C127.105 6.42829 127.244 6.42829 127.429 6.57983C128.458 7.28531 129.095 9.91119 129.188 13.5456C129.234 17.079 128.771 20.5114 127.938 22.5046L127.918 22.5714Z" fill="#414141"/>
<path fill-rule="evenodd" clip-rule="evenodd" d="M111.183 17.9244C110.935 15.8815 110.402 13.8917 109.605 12.0228C108.54 9.64864 107.198 8.48938 105.573 8.48938C104.932 8.50085 104.3 8.65529 103.716 8.94315C101.402 10.063 99.7769 12.3028 98.9442 15.7574C98.5112 17.6036 98.2936 19.5018 98.2963 21.4073C98.2933 22.6213 98.355 23.8346 98.481 25.0409C98.481 25.0974 98.7586 27.7181 99.3145 27.8405H99.3609C100.101 27.8405 100.286 24.9124 100.286 24.8619C100.333 24.207 100.425 22.897 100.523 22.0623C100.557 21.8105 100.573 21.5554 100.569 21.3003C100.829 21.2489 101.092 21.2146 101.356 21.2001C101.507 21.1556 101.663 21.1384 101.819 21.1496L102.791 20.998L105.758 20.5443C106.406 20.3936 107.815 19.8396 107.707 18.7309C107.66 18.0759 106.678 17.7172 104.786 17.7172C104.231 17.7172 103.624 17.7677 102.929 17.8182C102.415 17.9184 101.865 18.0254 101.309 18.1761L100.615 18.3276C100.848 16.9383 101.336 15.6144 102.05 14.4355C102.605 13.5279 103.716 11.9663 105.018 11.9663H105.11C107.707 12.0673 108.494 16.8096 108.772 18.5794L108.818 18.7814C109.095 20.4612 109.235 22.1128 109.373 23.7755C109.466 24.683 109.512 25.6462 109.651 26.5751C109.743 27.3311 109.883 28.0871 109.975 28.6984C110.021 28.8996 110.114 29.3029 110.35 29.3029C110.397 29.3029 110.397 29.3029 110.443 29.2515C110.674 29.1008 111.322 25.2652 111.369 23.5965C111.494 21.7283 111.432 19.8508 111.183 17.9972V17.9244Z" fill="#414141"/>
<path d="M76.3219 10.5056C76.2747 9.74964 75.9979 7.38061 75.1644 7.38061H75.026C74.187 7.63318 73.8175 9.84981 73.8631 13.9885V16.4629C71.9193 15.7069 69.878 15.6572 67.9287 15.6572C67.1424 15.6572 66.3089 15.6572 65.4755 15.6058V14.3918C65.4476 13.0248 65.3549 11.6602 65.1979 10.3036C65.1038 9.52227 64.9646 8.74819 64.7811 7.98593C64.6372 7.48164 64.4525 7.17342 64.2677 7.17342C64.2424 7.17009 64.2168 7.17298 64.1927 7.18187C64.1686 7.19076 64.1467 7.20543 64.1285 7.22479C63.0174 7.98593 62.8783 12.5271 62.8783 13.0305C62.8326 15.4552 62.7863 17.9809 62.8783 20.5006C63.3933 27.1136 63.8509 27.8696 64.1285 27.8696C64.6427 27.8696 64.9203 25.5006 65.1979 23.0759C65.2451 22.7737 65.2451 22.5725 65.2907 22.3704C65.3834 21.5648 65.4298 20.8037 65.4755 19.9963C65.5148 19.6453 65.5305 19.2917 65.5226 18.9381H66.0361C66.4528 18.9381 66.8696 18.9894 67.2863 18.9894C68.1701 19.0391 69.0964 19.0896 70.0219 19.0896C71.3825 18.9224 72.6942 18.4392 73.8686 17.6726C73.915 17.6221 73.9614 17.6221 74.0077 17.5716V18.6358C73.9606 21.2061 74.9844 27.7686 75.6787 28.5246C75.7251 28.5751 75.7714 28.6308 75.8178 28.6308C76.3321 28.6308 76.5122 25.9039 76.6513 23.1264L76.6969 22.724C76.7897 18.6461 76.6655 14.5673 76.3274 10.5056H76.3219ZM99.2217 7.98507C99.21 7.92785 99.1807 7.87669 99.1387 7.84009C99.0966 7.80349 99.0443 7.78365 98.9905 7.78387C98.8162 7.81433 98.6545 7.90217 98.5274 8.03559C97.9611 9.06493 97.4461 10.1267 96.9846 11.2163C96.5215 12.3755 96.0591 13.5348 95.6424 14.6992C95.1281 16.1101 94.5777 17.4988 94.0226 18.9381C93.4542 20.4615 92.6887 21.8886 91.7493 23.1761C90.9622 24.2968 90.124 24.2352 89.2913 23.0759C88.4368 21.8409 87.7445 20.4822 87.2343 19.0391C86.9568 18.3336 86.5864 17.2189 86.2058 15.9594C84.8172 11.6195 83.6086 8.0861 82.8215 8.0861H82.8011C82.7534 8.08516 82.7064 8.09887 82.6655 8.12568C82.6246 8.15248 82.5915 8.19128 82.5699 8.23764C81.8292 9.3969 84.9815 19.5425 85.8614 22.0177C86.3647 23.5588 87.0849 25.0057 87.9955 26.3071C88.8282 27.427 89.7545 27.9869 90.68 27.9869C91.1145 27.9736 91.5405 27.8533 91.9262 27.635C92.3119 27.4167 92.6471 27.1062 92.9068 26.7266C95.8736 22.8413 99.9522 9.71539 99.2115 8.00219L99.2217 7.98507ZM81.3818 15.7582V14.1897C81.3818 12.9303 81.1042 8.53987 80.7291 8.03045C80.59 7.72822 80.4508 7.57668 80.266 7.57668C79.7109 7.57668 79.2013 9.08867 79.155 9.74364C78.9299 13.1883 78.9144 16.6453 79.1086 20.0922C79.2941 23.7258 79.6645 28.0657 80.3588 28.0657H80.4052C81.3818 27.8636 81.3818 24.1461 81.3818 21.6598V20.4954C81.4282 18.9329 81.3818 17.3148 81.3818 15.7523V15.7582ZM61.0682 19.6435C60.3788 17.8543 59.2378 16.3145 57.7774 15.2026C57.4071 14.9004 56.9903 14.5476 56.62 14.2394C55.5089 13.3319 54.3475 12.3747 53.2365 11.3669C52.943 11.1404 52.6988 10.8465 52.5211 10.5059C52.3434 10.1654 52.2365 9.78649 52.208 9.39604C52.1998 9.02301 52.2612 8.65204 52.3885 8.3056C52.5158 7.95917 52.7064 7.64449 52.9487 7.38061C53.9772 6.21622 55.9618 5.40885 58.6974 5.05611C58.8277 5.04916 58.9523 4.9963 59.0526 4.9055C59.1529 4.8147 59.2233 4.69087 59.2533 4.55268C59.2793 4.45441 59.2801 4.35027 59.2555 4.25156C59.231 4.15285 59.1821 4.06334 59.1142 3.99275C58.7902 3.53298 57.9056 3.28213 56.8417 3.28213C54.9172 3.31517 53.0573 4.04371 51.5546 5.3532C50.9085 5.88669 50.3814 6.57217 50.0127 7.3585C49.644 8.14482 49.4432 9.01167 49.4252 9.89433C49.4426 10.7122 49.6383 11.5139 49.996 12.2333C50.3538 12.9527 50.8635 13.5693 51.483 14.0322C51.8982 14.3969 52.3322 14.736 52.7836 15.0459C53.4579 15.5673 54.1215 16.1051 54.7737 16.6589C54.9797 16.861 55.1983 17.0476 55.4264 17.2189C56.3204 17.9683 57.1424 18.8146 57.8797 19.7446C58.2131 20.1278 58.4557 20.5936 58.5865 21.1019C58.7174 21.6102 58.7325 22.1455 58.6306 22.6615C58.4963 23.0791 58.2692 23.4541 57.9695 23.753C57.6699 24.0519 57.3071 24.2655 56.9133 24.3747C55.8258 24.7943 54.6825 25.0169 53.5298 25.0297C51.806 25.0158 50.1323 24.3973 48.7568 23.266C46.9467 21.9047 46.6228 20.4381 47.5019 17.6666L47.5491 17.5656L47.4563 17.6161C47.0901 17.8037 46.767 18.078 46.5107 18.419C46.2544 18.76 46.0713 19.1591 45.9749 19.587C45.7986 20.2373 45.7446 20.9196 45.8162 21.5931C45.8878 22.2666 46.0835 22.9174 46.3916 23.5066C48.0114 26.2335 51.071 27.897 54.4553 27.897C56.1965 27.9445 57.9102 27.4174 59.3713 26.385C61.4542 24.9176 62.1077 22.2977 61.0839 19.6213L61.0682 19.6435Z" fill="#414141"/>
<path fill-rule="evenodd" clip-rule="evenodd" d="M79.2425 0.414708C79.4155 0.757176 79.5704 1.11077 79.7057 1.47293C79.8905 1.9267 80.076 2.38047 80.2608 2.78288C80.3311 3.00595 80.476 3.19205 80.6665 3.3042C80.8571 3.41634 81.0794 3.44633 81.2893 3.38819C81.6597 3.33767 81.9836 3.18613 82.354 3.13647C82.7243 3.0851 83.0019 2.83339 83.4186 2.98493C83.463 3.17519 83.4694 3.3736 83.4374 3.56678C83.4054 3.75996 83.3357 3.94342 83.2331 4.1048C82.4468 5.71783 80.6618 6.02006 79.7104 4.75977C79.3428 4.27077 79.0711 3.70501 78.9119 3.09732C78.7527 2.48964 78.7095 1.85291 78.7849 1.22636C78.7809 1.05738 78.8227 0.890861 78.905 0.747582C78.9874 0.604303 79.1067 0.490612 79.248 0.420701L79.2425 0.414708Z" fill="#414141"/>
<path d="M61.0227 49.6233H63.1103L65.3828 43.2679L67.3737 49.6233H69.4614L72.5469 38.7713H71.0608L68.4022 48.565L65.4347 38.7704H63.8919L64.7254 41.4468L62.1542 48.6147L59.9273 38.7704H58.3838L61.0219 49.6224L61.0227 49.6233ZM75.4217 49.7748C76.3442 49.7506 77.23 49.3763 77.9261 48.7166C78.0653 49.4717 78.8524 49.7243 79.6387 49.7243C79.7637 49.732 79.8895 49.7149 80.009 49.6729L80.0554 48.464C79.6387 48.464 79.2683 48.363 79.2683 47.809V43.4195C79.2683 41.7003 78.2398 40.9948 76.3935 40.9948C75.4723 40.9904 74.5591 41.1805 73.7044 41.5547L74.0283 42.7696C74.7268 42.4925 75.4653 42.3539 76.2088 42.3604C77.3198 42.3604 77.8797 42.6626 77.8797 43.8278V44.7354L76.2088 44.785C74.8665 44.785 73.1492 45.2388 73.1492 47.3613C73.0564 48.9229 74.0283 49.7799 75.4217 49.7799V49.7748ZM75.8384 48.5205C75.0977 48.5205 74.5426 48.1173 74.5426 47.3107C74.5426 46.5042 75.1441 45.9443 76.2088 45.9443L77.8341 45.8938V47.8142C77.224 48.2051 76.5429 48.4461 75.8384 48.5205ZM84.1332 53L87.8926 41.2405H86.401L84.5964 46.9469L84.1749 48.4084L83.7582 46.9469L82.1847 41.2405H80.6058L83.1102 49.6395H83.7118L82.7399 53H84.1332ZM95.7715 49.8193C97.9055 49.8193 99.4789 48.4084 99.4789 45.4289C99.4789 42.702 98.2759 41.0393 95.9562 41.0393C93.7294 41.0393 92.2488 42.6515 92.2488 45.5188C92.2024 48.1952 93.5446 49.8082 95.7715 49.8082V49.8193ZM95.8635 48.4974C94.1973 48.4974 93.683 47.0864 93.683 45.4683C93.683 43.9563 94.1517 42.3381 95.8179 42.3381C97.4841 42.3381 97.9519 43.9563 97.9519 45.4683C97.9519 46.9803 97.5352 48.4974 95.8635 48.4974ZM101.659 52.4846H103.141V42.4554H104.812V41.2465H103.115V40.7422C103.115 39.6223 103.485 39.1746 104.323 39.1746C104.65 39.1711 104.976 39.2071 105.295 39.2807L105.526 38.0153C105.122 37.8799 104.7 37.8121 104.277 37.8141C102.837 37.8141 101.633 38.5196 101.633 40.7422V41.2465H100.523V42.4563H101.633V52.5017L101.659 52.4846ZM114.593 49.7577C115.621 49.7736 116.642 49.5838 117.607 49.1977V44.2756H116.064V48.1952C115.625 48.3124 115.173 48.3633 114.722 48.3467C112.588 48.3467 110.782 47.0864 110.782 44.1078C110.782 41.1283 112.448 40.0205 114.444 40.0205C115.297 40.0098 116.145 40.1634 116.948 40.4742L117.365 39.2139C116.455 38.7421 115.45 38.5319 114.444 38.6035C111.061 38.6035 109.204 40.6754 109.204 44.2585C109.296 47.7423 111.292 49.7577 114.583 49.7577H114.593ZM119.633 49.6061H121.119V43.6206C121.329 43.2774 121.61 42.9929 121.94 42.7906C122.27 42.5882 122.639 42.4737 123.017 42.4563C123.329 42.4563 123.642 42.4905 123.947 42.5564L124.179 41.196C123.877 41.1007 123.564 41.0497 123.248 41.0444C122.822 41.0576 122.406 41.1838 122.035 41.4121C121.664 41.6404 121.349 41.9638 121.119 42.3544V41.2362H119.633V49.6353V49.6061ZM127.146 49.7577C128.068 49.7346 128.952 49.3601 129.646 48.6995C129.784 49.4555 130.577 49.7072 131.363 49.7072C131.488 49.7123 131.613 49.6952 131.734 49.6567L131.78 48.4469C131.363 48.4469 130.993 48.3467 130.993 47.7919V43.4023C130.993 41.6831 129.964 40.9777 128.118 40.9777C127.197 40.9733 126.284 41.1634 125.429 41.5376L125.753 42.7534C126.436 42.48 127.159 42.3414 127.887 42.3441C128.998 42.3441 129.553 42.6463 129.553 43.8107V44.7183L127.887 44.7688C126.545 44.7688 124.827 45.2225 124.827 47.3441C124.781 48.9066 125.753 49.7628 127.146 49.7628V49.7577ZM127.563 48.5034C126.822 48.5034 126.262 48.1001 126.262 47.2936C126.262 46.488 126.869 45.9272 127.933 45.9272L129.553 45.8775V47.7979C128.945 48.1892 128.266 48.4301 127.563 48.5034ZM136.882 49.8133C137.539 49.8133 138.194 49.7115 138.825 49.5111L138.594 48.2517C138.083 48.4166 137.553 48.5013 137.02 48.5034C134.963 48.5034 134.377 47.4957 134.377 45.5753C134.377 43.3347 135.256 42.3946 136.742 42.3946C137.318 42.4023 137.886 42.541 138.409 42.803L138.825 41.5872C138.169 41.2108 137.437 41.0186 136.696 41.0282C134.331 41.0282 132.845 42.5907 132.845 45.6198C132.891 48.4195 134.053 49.8082 136.882 49.8082V49.8133ZM143.834 49.8082C144.716 49.8082 145.593 49.6558 146.431 49.3544L146.2 48.095C145.51 48.3342 144.79 48.453 144.065 48.4469C142.718 48.4469 141.561 47.9931 141.494 45.7705H146.57V45.2106C146.57 42.4837 145.686 40.9725 143.484 40.9725C141.536 40.9725 140.008 42.2311 140.008 45.5128C140.008 48.7945 141.489 49.8022 143.808 49.8022L143.834 49.8082ZM141.536 44.6566C141.628 42.9768 142.415 42.1823 143.392 42.1823C144.502 42.1823 145.012 43.1446 145.012 44.6566H141.536Z" fill="#414141"/>
</svg>
